<svg xmlns="http://www.w3.org/2000/svg" xmlns:xlink="http://www.w3.org/1999/xlink" width="500" zoomAndPan="magnify" viewBox="0 0 375 374.999991" height="500" preserveAspectRatio="xMidYMid meet" version="1.0"><defs><g/><clipPath id="68b22c06f0"><path d="M 166 93.875 L 183 93.875 L 183 111 L 166 111 Z M 166 93.875 " clip-rule="nonzero"/></clipPath><clipPath id="46e21923a1"><path d="M 195 93.875 L 212 93.875 L 212 111 L 195 111 Z M 195 93.875 " clip-rule="nonzero"/></clipPath><clipPath id="55de1721be"><path d="M 192 139 L 251 139 L 251 223.625 L 192 223.625 Z M 192 139 " clip-rule="nonzero"/></clipPath></defs><path fill="#2ad495" d="M 235.316406 121.910156 C 237.210938 119.382812 236.695312 115.792969 234.164062 113.902344 C 231.632812 112.003906 228.050781 112.523438 226.15625 115.054688 C 217.4375 126.71875 203.539062 133.683594 188.980469 133.683594 C 174.421875 133.683594 160.527344 126.71875 151.804688 115.054688 C 149.914062 112.523438 146.328125 112.003906 143.796875 113.902344 C 141.269531 115.792969 140.753906 119.382812 142.644531 121.910156 C 153.515625 136.449219 170.835938 145.128906 188.980469 145.128906 C 207.125 145.128906 224.449219 136.449219 235.316406 121.910156 " fill-opacity="1" fill-rule="nonzero"/><g clip-path="url(#68b22c06f0)"><path fill="#2ad495" d="M 174.617188 110.097656 C 179.089844 110.097656 182.71875 106.46875 182.71875 101.988281 C 182.71875 97.507812 179.089844 93.878906 174.617188 93.878906 C 170.140625 93.878906 166.511719 97.507812 166.511719 101.988281 C 166.511719 106.46875 170.140625 110.097656 174.617188 110.097656 " fill-opacity="1" fill-rule="nonzero"/></g><g clip-path="url(#46e21923a1)"><path fill="#2ad495" d="M 203.347656 110.097656 C 207.820312 110.097656 211.449219 106.46875 211.449219 101.988281 C 211.449219 97.507812 207.820312 93.878906 203.347656 93.878906 C 198.871094 93.878906 195.242188 97.507812 195.242188 101.988281 C 195.242188 106.46875 198.871094 110.097656 203.347656 110.097656 " fill-opacity="1" fill-rule="nonzero"/></g><path fill="#ffc100" d="M 131.34375 138.195312 C 128.203125 137.808594 125.363281 140.058594 124.988281 143.199219 C 124.613281 146.339844 126.851562 149.1875 129.988281 149.5625 C 144.445312 151.289062 157.417969 159.851562 164.699219 172.46875 C 171.976562 185.085938 172.898438 200.613281 167.164062 214.003906 C 165.921875 216.910156 167.265625 220.273438 170.171875 221.519531 C 170.90625 221.832031 171.667969 221.984375 172.421875 221.984375 C 174.640625 221.984375 176.75 220.683594 177.679688 218.511719 C 184.828125 201.820312 183.679688 182.46875 174.605469 166.746094 C 165.535156 151.019531 149.363281 140.347656 131.34375 138.195312 " fill-opacity="1" fill-rule="nonzero"/><path fill="#ffc100" d="M 140.402344 193.742188 C 136.527344 195.980469 135.199219 200.941406 137.4375 204.820312 C 139.671875 208.699219 144.628906 210.027344 148.503906 207.789062 C 152.382812 205.546875 153.710938 200.589844 151.472656 196.710938 C 149.234375 192.832031 144.277344 191.503906 140.402344 193.742188 " fill-opacity="1" fill-rule="nonzero"/><path fill="#ffc100" d="M 137.105469 171.8125 C 134.867188 167.929688 129.914062 166.601562 126.035156 168.84375 C 122.160156 171.082031 120.832031 176.042969 123.070312 179.917969 C 125.308594 183.796875 130.265625 185.128906 134.140625 182.886719 C 138.015625 180.648438 139.34375 175.6875 137.105469 171.8125 " fill-opacity="1" fill-rule="nonzero"/><g clip-path="url(#55de1721be)"><path fill="#ff0472" d="M 250.117188 144.851562 C 249.742188 141.710938 246.894531 139.480469 243.757812 139.847656 C 225.738281 142 209.570312 152.671875 200.496094 168.398438 C 191.425781 184.121094 190.273438 203.472656 197.421875 220.164062 C 198.351562 222.335938 200.460938 223.636719 202.683594 223.636719 C 203.433594 223.636719 204.195312 223.488281 204.933594 223.171875 C 207.835938 221.925781 209.179688 218.5625 207.9375 215.65625 C 202.203125 202.265625 203.125 186.738281 210.40625 174.121094 C 217.683594 161.503906 230.65625 152.941406 245.113281 151.214844 C 248.25 150.839844 250.488281 147.992188 250.117188 144.851562 " fill-opacity="1" fill-rule="nonzero"/></g><path fill="#ff0472" d="M 249.066406 170.496094 C 245.191406 168.253906 240.234375 169.585938 237.996094 173.460938 C 235.757812 177.339844 237.085938 182.300781 240.960938 184.539062 C 244.835938 186.78125 249.792969 185.449219 252.03125 181.570312 C 254.269531 177.695312 252.941406 172.734375 249.066406 170.496094 " fill-opacity="1" fill-rule="nonzero"/><path fill="#ff0472" d="M 234.699219 195.394531 C 230.824219 193.15625 225.867188 194.484375 223.632812 198.363281 C 221.394531 202.242188 222.722656 207.199219 226.597656 209.441406 C 230.472656 211.679688 235.429688 210.351562 237.667969 206.472656 C 239.90625 202.59375 238.574219 197.632812 234.699219 195.394531 " fill-opacity="1" fill-rule="nonzero"/><g fill="#19401f" fill-opacity="1"><g transform="translate(144.37375, 262.203088)"><g><path d="M 2.0625 0 L 7.328125 0 L 7.328125 -20.644531 L 2.0625 -20.644531 Z M 2.0625 0 "/></g></g></g><g fill="#19401f" fill-opacity="1"><g transform="translate(154.747532, 262.203088)"><g><path d="M 15.035156 -20.644531 L -0.308594 -20.644531 L -0.308594 -16.066406 L 4.75 -16.066406 L 4.75 0 L 9.976562 0 L 9.976562 -16.066406 L 15.035156 -16.066406 Z M 15.035156 -20.644531 "/></g></g></g><g fill="#19401f" fill-opacity="1"><g transform="translate(170.486854, 262.203088)"><g><path d="M 16.582031 -8.773438 L 15 -8.773438 L 15 -20.644531 L 8.566406 -20.644531 L 0.242188 -4.335938 L 9.910156 -4.335938 L 9.910156 0 L 15 0 L 15 -4.335938 L 16.582031 -4.335938 Z M 6.398438 -8.773438 L 9.910156 -16 L 9.910156 -8.773438 Z M 6.398438 -8.773438 "/></g></g></g><g fill="#19401f" fill-opacity="1"><g transform="translate(189.356077, 262.203088)"><g><path d="M 8.636719 0.273438 C 12.59375 0.273438 16 -2.03125 16 -5.988281 C 16 -13.832031 6.640625 -11.871094 6.640625 -15 C 6.640625 -15.894531 7.328125 -16.308594 8.152344 -16.308594 C 9.1875 -16.308594 10.320312 -15.6875 11.421875 -14.519531 L 14.863281 -17.855469 C 13.246094 -19.75 10.804688 -20.917969 8.222656 -20.917969 C 4.953125 -20.917969 1.34375 -19.027344 1.34375 -14.621094 C 1.34375 -7.464844 10.734375 -9.1875 10.734375 -6.054688 C 10.734375 -5.230469 10.046875 -4.644531 8.703125 -4.644531 C 6.914062 -4.644531 5.46875 -5.609375 4.75 -7.15625 L 0.449219 -4.472656 C 1.824219 -1.859375 4.851562 0.273438 8.636719 0.273438 Z M 8.636719 0.273438 "/></g></g></g><g fill="#19401f" fill-opacity="1"><g transform="translate(207.124677, 262.203088)"><g><path d="M 11.734375 -11.457031 L 11.734375 -7.433594 L 16.445312 -7.433594 C 15.484375 -5.882812 13.796875 -4.886719 11.765625 -4.886719 C 8.636719 -4.886719 6.296875 -7.191406 6.296875 -10.320312 C 6.296875 -13.453125 8.636719 -15.757812 11.765625 -15.757812 C 13.96875 -15.757812 15.757812 -14.621094 16.652344 -12.832031 L 21.195312 -15.140625 C 19.441406 -18.578125 15.859375 -20.917969 11.765625 -20.917969 C 5.882812 -20.917969 1.167969 -16.171875 1.167969 -10.320312 C 1.167969 -4.472656 5.882812 0.273438 11.765625 0.273438 C 17.617188 0.273438 22.363281 -4.472656 22.363281 -10.320312 L 22.363281 -11.457031 Z M 11.734375 -11.457031 "/></g></g></g><g fill="#161d29" fill-opacity="1"><g transform="translate(102.561896, 277.661994)"><g><path d="M 0.882812 0 L 1.605469 0 L 1.605469 -6.785156 L 0.882812 -6.785156 Z M 0.882812 0 "/></g></g></g><g fill="#161d29" fill-opacity="1"><g transform="translate(109.289408, 277.661994)"><g><path d="M 4.578125 -6.785156 L 0.101562 -6.785156 L 0.101562 -6.058594 L 1.980469 -6.058594 L 1.980469 0 L 2.703125 0 L 2.703125 -6.058594 L 4.578125 -6.058594 Z M 4.578125 -6.785156 "/></g></g></g><g fill="#161d29" fill-opacity="1"><g transform="translate(118.219221, 277.661994)"><g/></g></g><g fill="#161d29" fill-opacity="1"><g transform="translate(125.195195, 277.661994)"><g><path d="M 4.589844 -6.082031 L 4.589844 -6.785156 L 0.882812 -6.785156 L 0.882812 0 L 1.605469 0 L 1.605469 -3.042969 L 4.207031 -3.042969 L 4.207031 -3.742188 L 1.605469 -3.742188 L 1.605469 -6.082031 Z M 4.589844 -6.082031 "/></g></g></g><g fill="#161d29" fill-opacity="1"><g transform="translate(134.23795, 277.661994)"><g><path d="M 4.035156 0.0898438 C 5.96875 0.0898438 7.519531 -1.46875 7.519531 -3.390625 C 7.519531 -5.3125 5.96875 -6.875 4.035156 -6.875 C 2.113281 -6.875 0.554688 -5.3125 0.554688 -3.390625 C 0.554688 -1.46875 2.113281 0.0898438 4.035156 0.0898438 Z M 4.035156 -0.632812 C 2.511719 -0.632812 1.277344 -1.855469 1.277344 -3.390625 C 1.277344 -4.929688 2.511719 -6.152344 4.035156 -6.152344 C 5.574219 -6.152344 6.796875 -4.929688 6.796875 -3.390625 C 6.796875 -1.855469 5.574219 -0.632812 4.035156 -0.632812 Z M 4.035156 -0.632812 "/></g></g></g><g fill="#161d29" fill-opacity="1"><g transform="translate(146.56723, 277.661994)"><g><path d="M 3.574219 -3.097656 C 4.464844 -3.222656 5.144531 -3.96875 5.144531 -4.882812 C 5.144531 -5.945312 4.296875 -6.785156 3.257812 -6.785156 L 0.824219 -6.785156 L 0.824219 0 L 1.550781 0 L 1.550781 -3.0625 L 2.828125 -3.0625 L 4.75 0 L 5.574219 0 Z M 1.550781 -3.753906 L 1.550781 -6.058594 L 3.210938 -6.058594 C 3.890625 -6.058594 4.421875 -5.585938 4.421875 -4.90625 C 4.421875 -4.21875 3.902344 -3.753906 3.210938 -3.753906 Z M 1.550781 -3.753906 "/></g></g></g><g fill="#161d29" fill-opacity="1"><g transform="translate(156.490905, 277.661994)"><g/></g></g><g fill="#161d29" fill-opacity="1"><g transform="translate(163.466879, 277.661994)"><g><path d="M 2.53125 0.0898438 C 3.6875 0.0898438 4.625 -0.597656 4.625 -1.785156 C 4.625 -4.09375 1.324219 -3.527344 1.324219 -5.144531 C 1.324219 -5.824219 1.875 -6.152344 2.511719 -6.152344 C 3.03125 -6.152344 3.460938 -5.9375 3.730469 -5.550781 L 4.296875 -6.027344 C 3.921875 -6.5 3.265625 -6.875 2.488281 -6.875 C 1.445312 -6.875 0.597656 -6.195312 0.597656 -5.085938 C 0.597656 -2.90625 3.902344 -3.449219 3.902344 -1.765625 C 3.902344 -1.039062 3.300781 -0.632812 2.542969 -0.632812 C 1.773438 -0.632812 1.222656 -1.050781 0.984375 -1.671875 L 0.328125 -1.289062 C 0.679688 -0.453125 1.527344 0.0898438 2.53125 0.0898438 Z M 2.53125 0.0898438 "/></g></g></g><g fill="#161d29" fill-opacity="1"><g transform="translate(172.667745, 277.661994)"><g><path d="M 4.035156 0.0898438 C 5.96875 0.0898438 7.519531 -1.46875 7.519531 -3.390625 C 7.519531 -5.3125 5.96875 -6.875 4.035156 -6.875 C 2.113281 -6.875 0.554688 -5.3125 0.554688 -3.390625 C 0.554688 -1.46875 2.113281 0.0898438 4.035156 0.0898438 Z M 4.035156 -0.632812 C 2.511719 -0.632812 1.277344 -1.855469 1.277344 -3.390625 C 1.277344 -4.929688 2.511719 -6.152344 4.035156 -6.152344 C 5.574219 -6.152344 6.796875 -4.929688 6.796875 -3.390625 C 6.796875 -1.855469 5.574219 -0.632812 4.035156 -0.632812 Z M 4.035156 -0.632812 "/></g></g></g><g fill="#161d29" fill-opacity="1"><g transform="translate(184.997025, 277.661994)"><g><path d="M 4.035156 0.0898438 C 5.335938 0.0898438 6.46875 -0.621094 7.066406 -1.671875 L 6.445312 -2.023438 C 5.980469 -1.1875 5.078125 -0.632812 4.035156 -0.632812 C 2.511719 -0.632812 1.277344 -1.855469 1.277344 -3.390625 C 1.277344 -4.929688 2.511719 -6.152344 4.035156 -6.152344 C 5.078125 -6.152344 5.980469 -5.597656 6.445312 -4.761719 L 7.066406 -5.109375 C 6.46875 -6.160156 5.335938 -6.875 4.035156 -6.875 C 2.113281 -6.875 0.554688 -5.3125 0.554688 -3.390625 C 0.554688 -1.46875 2.113281 0.0898438 4.035156 0.0898438 Z M 4.035156 0.0898438 "/></g></g></g><g fill="#161d29" fill-opacity="1"><g transform="translate(196.682552, 277.661994)"><g><path d="M 0.882812 0 L 1.605469 0 L 1.605469 -6.785156 L 0.882812 -6.785156 Z M 0.882812 0 "/></g></g></g><g fill="#161d29" fill-opacity="1"><g transform="translate(203.410064, 277.661994)"><g><path d="M 4.917969 0 L 5.710938 0 L 3.257812 -6.785156 L 2.453125 -6.785156 L 0 0 L 0.792969 0 L 1.34375 -1.582031 L 4.363281 -1.582031 Z M 1.582031 -2.273438 L 2.859375 -5.925781 L 4.125 -2.273438 Z M 1.582031 -2.273438 "/></g></g></g><g fill="#161d29" fill-opacity="1"><g transform="translate(213.367625, 277.661994)"><g><path d="M 1.550781 -0.722656 L 1.550781 -6.785156 L 0.824219 -6.785156 L 0.824219 0 L 4.070312 0 L 4.070312 -0.722656 Z M 1.550781 -0.722656 "/></g></g></g><g fill="#161d29" fill-opacity="1"><g transform="translate(221.789217, 277.661994)"><g/></g></g><g fill="#161d29" fill-opacity="1"><g transform="translate(228.765192, 277.661994)"><g><path d="M 4.058594 -3.59375 L 4.058594 -2.917969 L 6.785156 -2.917969 C 6.570312 -1.605469 5.4375 -0.632812 4.070312 -0.632812 C 2.542969 -0.632812 1.3125 -1.855469 1.3125 -3.390625 C 1.3125 -4.929688 2.542969 -6.152344 4.070312 -6.152344 C 5.097656 -6.152344 6.003906 -5.597656 6.46875 -4.761719 L 7.089844 -5.109375 C 6.5 -6.160156 5.371094 -6.875 4.070312 -6.875 C 2.136719 -6.875 0.589844 -5.3125 0.589844 -3.390625 C 0.589844 -1.46875 2.136719 0.0898438 4.070312 0.0898438 C 5.992188 0.0898438 7.550781 -1.46875 7.550781 -3.390625 L 7.550781 -3.59375 Z M 4.058594 -3.59375 "/></g></g></g><g fill="#161d29" fill-opacity="1"><g transform="translate(241.139642, 277.661994)"><g><path d="M 4.035156 0.0898438 C 5.96875 0.0898438 7.519531 -1.46875 7.519531 -3.390625 C 7.519531 -5.3125 5.96875 -6.875 4.035156 -6.875 C 2.113281 -6.875 0.554688 -5.3125 0.554688 -3.390625 C 0.554688 -1.46875 2.113281 0.0898438 4.035156 0.0898438 Z M 4.035156 -0.632812 C 2.511719 -0.632812 1.277344 -1.855469 1.277344 -3.390625 C 1.277344 -4.929688 2.511719 -6.152344 4.035156 -6.152344 C 5.574219 -6.152344 6.796875 -4.929688 6.796875 -3.390625 C 6.796875 -1.855469 5.574219 -0.632812 4.035156 -0.632812 Z M 4.035156 -0.632812 "/></g></g></g><g fill="#161d29" fill-opacity="1"><g transform="translate(253.468922, 277.661994)"><g><path d="M 4.035156 0.0898438 C 5.96875 0.0898438 7.519531 -1.46875 7.519531 -3.390625 C 7.519531 -5.3125 5.96875 -6.875 4.035156 -6.875 C 2.113281 -6.875 0.554688 -5.3125 0.554688 -3.390625 C 0.554688 -1.46875 2.113281 0.0898438 4.035156 0.0898438 Z M 4.035156 -0.632812 C 2.511719 -0.632812 1.277344 -1.855469 1.277344 -3.390625 C 1.277344 -4.929688 2.511719 -6.152344 4.035156 -6.152344 C 5.574219 -6.152344 6.796875 -4.929688 6.796875 -3.390625 C 6.796875 -1.855469 5.574219 -0.632812 4.035156 -0.632812 Z M 4.035156 -0.632812 "/></g></g></g><g fill="#161d29" fill-opacity="1"><g transform="translate(265.798202, 277.661994)"><g><path d="M 0.824219 0 L 2.679688 0 C 4.546875 0 6.070312 -1.515625 6.070312 -3.390625 C 6.070312 -5.269531 4.546875 -6.785156 2.679688 -6.785156 L 0.824219 -6.785156 Z M 1.539062 -0.722656 L 1.539062 -6.058594 L 2.667969 -6.058594 C 4.171875 -6.058594 5.347656 -4.917969 5.347656 -3.390625 C 5.347656 -1.867188 4.171875 -0.722656 2.667969 -0.722656 Z M 1.539062 -0.722656 "/></g></g></g></svg>